<svg xmlns="http://www.w3.org/2000/svg" xmlns:xlink="http://www.w3.org/1999/xlink" width="1080" zoomAndPan="magnify" viewBox="0 0 810 809.999993" height="1080" preserveAspectRatio="xMidYMid meet" version="1.0"><defs><filter x="0%" y="0%" width="100%" height="100%" id="fb788a03bc"><feColorMatrix values="0 0 0 0 1 0 0 0 0 1 0 0 0 0 1 0 0 0 1 0" color-interpolation-filters="sRGB"/></filter><g/><mask id="9a3a0784f1"><g filter="url(#fb788a03bc)"><rect x="-81" width="972" fill="#000000" y="-80.999999" height="971.999992" fill-opacity="0.05"/></g></mask><clipPath id="72c7bce007"><path d="M 0.878906 0.214844 L 328 0.214844 L 328 345.964844 L 0.878906 345.964844 Z M 0.878906 0.214844 " clip-rule="nonzero"/></clipPath><clipPath id="23b833e208"><path d="M 188.871094 161.300781 L 41.910156 161.300781 C 36.210938 161.300781 32.085938 155.855469 33.625 150.367188 L 73.972656 6.515625 C 75.011719 2.800781 78.398438 0.234375 82.253906 0.234375 L 229.214844 0.234375 C 234.914062 0.234375 239.039062 5.675781 237.5 11.167969 L 197.15625 155.019531 C 196.113281 158.734375 192.726562 161.300781 188.871094 161.300781 Z M 93.417969 269.882812 L 114.191406 195.816406 C 115.730469 190.328125 111.605469 184.882812 105.90625 184.882812 L 30.359375 184.882812 C 26.503906 184.882812 23.117188 187.449219 22.078125 191.164062 L 1.304688 265.234375 C -0.238281 270.722656 3.886719 276.167969 9.585938 276.167969 L 85.132812 276.167969 C 88.988281 276.167969 92.375 273.597656 93.417969 269.882812 Z M 131.644531 191.164062 L 91.300781 335.015625 C 89.757812 340.507812 93.882812 345.949219 99.582031 345.949219 L 246.542969 345.949219 C 250.402344 345.949219 253.785156 343.382812 254.828125 339.667969 L 295.175781 195.816406 C 296.714844 190.328125 292.589844 184.882812 286.890625 184.882812 L 139.929688 184.882812 C 136.074219 184.882812 132.6875 187.449219 131.644531 191.164062 Z M 235.382812 76.300781 L 214.609375 150.367188 C 213.070312 155.855469 217.195312 161.300781 222.894531 161.300781 L 298.4375 161.300781 C 302.296875 161.300781 305.679688 158.734375 306.722656 155.019531 L 327.496094 80.949219 C 329.035156 75.460938 324.914062 70.015625 319.210938 70.015625 L 243.667969 70.015625 C 239.8125 70.015625 236.425781 72.585938 235.382812 76.300781 Z M 235.382812 76.300781 " clip-rule="nonzero"/></clipPath><linearGradient x1="114.529377" gradientTransform="matrix(0.691121, 0, 0, 0.691434, 0.978189, 0.233338)" y1="-47.066454" x2="358.405562" gradientUnits="userSpaceOnUse" y2="547.107061" id="a1db1429bb"><stop stop-opacity="1" stop-color="rgb(49.398804%, 85.099792%, 34.098816%)" offset="0"/><stop stop-opacity="1" stop-color="rgb(49.398804%, 85.099792%, 34.098816%)" offset="0.0625"/><stop stop-opacity="1" stop-color="rgb(49.523926%, 85.121155%, 34.124756%)" offset="0.09375"/><stop stop-opacity="1" stop-color="rgb(49.916077%, 85.191345%, 34.207153%)" offset="0.0976562"/><stop stop-opacity="1" stop-color="rgb(50.183105%, 85.238647%, 34.263611%)" offset="0.101563"/><stop stop-opacity="1" stop-color="rgb(50.448608%, 85.28595%, 34.318542%)" offset="0.105469"/><stop stop-opacity="1" stop-color="rgb(50.714111%, 85.333252%, 34.375%)" offset="0.109375"/><stop stop-opacity="1" stop-color="rgb(50.979614%, 85.380554%, 34.429932%)" offset="0.113281"/><stop stop-opacity="1" stop-color="rgb(51.246643%, 85.427856%, 34.486389%)" offset="0.117188"/><stop stop-opacity="1" stop-color="rgb(51.512146%, 85.475159%, 34.541321%)" offset="0.121094"/><stop stop-opacity="1" stop-color="rgb(51.779175%, 85.522461%, 34.597778%)" offset="0.125"/><stop stop-opacity="1" stop-color="rgb(52.044678%, 85.569763%, 34.65271%)" offset="0.128906"/><stop stop-opacity="1" stop-color="rgb(52.311707%, 85.617065%, 34.709167%)" offset="0.132812"/><stop stop-opacity="1" stop-color="rgb(52.577209%, 85.664368%, 34.764099%)" offset="0.136719"/><stop stop-opacity="1" stop-color="rgb(52.844238%, 85.71167%, 34.820557%)" offset="0.140625"/><stop stop-opacity="1" stop-color="rgb(53.109741%, 85.758972%, 34.875488%)" offset="0.144531"/><stop stop-opacity="1" stop-color="rgb(53.37677%, 85.806274%, 34.931946%)" offset="0.148438"/><stop stop-opacity="1" stop-color="rgb(53.642273%, 85.853577%, 34.986877%)" offset="0.152344"/><stop stop-opacity="1" stop-color="rgb(53.909302%, 85.900879%, 35.043335%)" offset="0.15625"/><stop stop-opacity="1" stop-color="rgb(54.174805%, 85.948181%, 35.099792%)" offset="0.160156"/><stop stop-opacity="1" stop-color="rgb(54.441833%, 85.995483%, 35.15625%)" offset="0.164062"/><stop stop-opacity="1" stop-color="rgb(54.707336%, 86.042786%, 35.211182%)" offset="0.167969"/><stop stop-opacity="1" stop-color="rgb(54.974365%, 86.090088%, 35.267639%)" offset="0.171875"/><stop stop-opacity="1" stop-color="rgb(55.239868%, 86.13739%, 35.322571%)" offset="0.175781"/><stop stop-opacity="1" stop-color="rgb(55.505371%, 86.184692%, 35.379028%)" offset="0.179688"/><stop stop-opacity="1" stop-color="rgb(55.770874%, 86.231995%, 35.43396%)" offset="0.183594"/><stop stop-opacity="1" stop-color="rgb(56.037903%, 86.280823%, 35.490417%)" offset="0.1875"/><stop stop-opacity="1" stop-color="rgb(56.303406%, 86.328125%, 35.545349%)" offset="0.191406"/><stop stop-opacity="1" stop-color="rgb(56.570435%, 86.375427%, 35.601807%)" offset="0.195312"/><stop stop-opacity="1" stop-color="rgb(56.835938%, 86.422729%, 35.656738%)" offset="0.199219"/><stop stop-opacity="1" stop-color="rgb(57.102966%, 86.470032%, 35.713196%)" offset="0.203125"/><stop stop-opacity="1" stop-color="rgb(57.368469%, 86.517334%, 35.768127%)" offset="0.207031"/><stop stop-opacity="1" stop-color="rgb(57.635498%, 86.564636%, 35.824585%)" offset="0.210938"/><stop stop-opacity="1" stop-color="rgb(57.901001%, 86.611938%, 35.879517%)" offset="0.214844"/><stop stop-opacity="1" stop-color="rgb(58.16803%, 86.659241%, 35.935974%)" offset="0.21875"/><stop stop-opacity="1" stop-color="rgb(58.433533%, 86.706543%, 35.990906%)" offset="0.222656"/><stop stop-opacity="1" stop-color="rgb(58.700562%, 86.753845%, 36.047363%)" offset="0.226562"/><stop stop-opacity="1" stop-color="rgb(58.966064%, 86.801147%, 36.102295%)" offset="0.230469"/><stop stop-opacity="1" stop-color="rgb(59.233093%, 86.84845%, 36.158752%)" offset="0.234375"/><stop stop-opacity="1" stop-color="rgb(59.498596%, 86.895752%, 36.213684%)" offset="0.238281"/><stop stop-opacity="1" stop-color="rgb(59.765625%, 86.943054%, 36.270142%)" offset="0.242188"/><stop stop-opacity="1" stop-color="rgb(60.031128%, 86.990356%, 36.325073%)" offset="0.246094"/><stop stop-opacity="1" stop-color="rgb(60.298157%, 87.037659%, 36.381531%)" offset="0.25"/><stop stop-opacity="1" stop-color="rgb(60.56366%, 87.084961%, 36.437988%)" offset="0.253906"/><stop stop-opacity="1" stop-color="rgb(60.829163%, 87.132263%, 36.494446%)" offset="0.257812"/><stop stop-opacity="1" stop-color="rgb(61.094666%, 87.179565%, 36.549377%)" offset="0.261719"/><stop stop-opacity="1" stop-color="rgb(61.361694%, 87.226868%, 36.605835%)" offset="0.265625"/><stop stop-opacity="1" stop-color="rgb(61.627197%, 87.27417%, 36.660767%)" offset="0.269531"/><stop stop-opacity="1" stop-color="rgb(61.894226%, 87.321472%, 36.717224%)" offset="0.273438"/><stop stop-opacity="1" stop-color="rgb(62.159729%, 87.368774%, 36.772156%)" offset="0.277344"/><stop stop-opacity="1" stop-color="rgb(62.426758%, 87.416077%, 36.828613%)" offset="0.28125"/><stop stop-opacity="1" stop-color="rgb(62.692261%, 87.463379%, 36.883545%)" offset="0.285156"/><stop stop-opacity="1" stop-color="rgb(62.95929%, 87.510681%, 36.940002%)" offset="0.289062"/><stop stop-opacity="1" stop-color="rgb(63.224792%, 87.557983%, 36.994934%)" offset="0.292969"/><stop stop-opacity="1" stop-color="rgb(63.491821%, 87.605286%, 37.051392%)" offset="0.296875"/><stop stop-opacity="1" stop-color="rgb(63.757324%, 87.652588%, 37.106323%)" offset="0.300781"/><stop stop-opacity="1" stop-color="rgb(64.024353%, 87.69989%, 37.162781%)" offset="0.304688"/><stop stop-opacity="1" stop-color="rgb(64.289856%, 87.747192%, 37.217712%)" offset="0.308594"/><stop stop-opacity="1" stop-color="rgb(64.556885%, 87.794495%, 37.27417%)" offset="0.3125"/><stop stop-opacity="1" stop-color="rgb(64.822388%, 87.841797%, 37.329102%)" offset="0.316406"/><stop stop-opacity="1" stop-color="rgb(65.089417%, 87.889099%, 37.385559%)" offset="0.320313"/><stop stop-opacity="1" stop-color="rgb(65.354919%, 87.936401%, 37.440491%)" offset="0.324219"/><stop stop-opacity="1" stop-color="rgb(65.620422%, 87.985229%, 37.496948%)" offset="0.328125"/><stop stop-opacity="1" stop-color="rgb(65.885925%, 88.032532%, 37.55188%)" offset="0.332031"/><stop stop-opacity="1" stop-color="rgb(66.152954%, 88.079834%, 37.608337%)" offset="0.335938"/><stop stop-opacity="1" stop-color="rgb(66.418457%, 88.127136%, 37.664795%)" offset="0.339844"/><stop stop-opacity="1" stop-color="rgb(66.685486%, 88.174438%, 37.721252%)" offset="0.34375"/><stop stop-opacity="1" stop-color="rgb(66.950989%, 88.221741%, 37.776184%)" offset="0.347656"/><stop stop-opacity="1" stop-color="rgb(67.218018%, 88.269043%, 37.832642%)" offset="0.351562"/><stop stop-opacity="1" stop-color="rgb(67.483521%, 88.316345%, 37.887573%)" offset="0.355469"/><stop stop-opacity="1" stop-color="rgb(67.750549%, 88.363647%, 37.944031%)" offset="0.359375"/><stop stop-opacity="1" stop-color="rgb(68.016052%, 88.41095%, 37.998962%)" offset="0.363281"/><stop stop-opacity="1" stop-color="rgb(68.283081%, 88.458252%, 38.05542%)" offset="0.367188"/><stop stop-opacity="1" stop-color="rgb(68.548584%, 88.505554%, 38.110352%)" offset="0.371094"/><stop stop-opacity="1" stop-color="rgb(68.815613%, 88.552856%, 38.166809%)" offset="0.375"/><stop stop-opacity="1" stop-color="rgb(69.081116%, 88.600159%, 38.221741%)" offset="0.378906"/><stop stop-opacity="1" stop-color="rgb(69.348145%, 88.647461%, 38.278198%)" offset="0.382813"/><stop stop-opacity="1" stop-color="rgb(69.613647%, 88.694763%, 38.33313%)" offset="0.386719"/><stop stop-opacity="1" stop-color="rgb(69.880676%, 88.742065%, 38.389587%)" offset="0.390625"/><stop stop-opacity="1" stop-color="rgb(70.146179%, 88.789368%, 38.444519%)" offset="0.394531"/><stop stop-opacity="1" stop-color="rgb(70.411682%, 88.83667%, 38.500977%)" offset="0.398438"/><stop stop-opacity="1" stop-color="rgb(70.677185%, 88.883972%, 38.555908%)" offset="0.402344"/><stop stop-opacity="1" stop-color="rgb(70.944214%, 88.931274%, 38.612366%)" offset="0.40625"/><stop stop-opacity="1" stop-color="rgb(71.209717%, 88.978577%, 38.667297%)" offset="0.410156"/><stop stop-opacity="1" stop-color="rgb(71.476746%, 89.025879%, 38.723755%)" offset="0.414062"/><stop stop-opacity="1" stop-color="rgb(71.742249%, 89.073181%, 38.778687%)" offset="0.417969"/><stop stop-opacity="1" stop-color="rgb(72.009277%, 89.120483%, 38.835144%)" offset="0.421875"/><stop stop-opacity="1" stop-color="rgb(72.27478%, 89.167786%, 38.890076%)" offset="0.425781"/><stop stop-opacity="1" stop-color="rgb(72.541809%, 89.215088%, 38.946533%)" offset="0.429688"/><stop stop-opacity="1" stop-color="rgb(72.807312%, 89.26239%, 39.002991%)" offset="0.433594"/><stop stop-opacity="1" stop-color="rgb(73.074341%, 89.309692%, 39.059448%)" offset="0.4375"/><stop stop-opacity="1" stop-color="rgb(73.339844%, 89.356995%, 39.11438%)" offset="0.441406"/><stop stop-opacity="1" stop-color="rgb(73.606873%, 89.404297%, 39.170837%)" offset="0.445312"/><stop stop-opacity="1" stop-color="rgb(73.872375%, 89.451599%, 39.225769%)" offset="0.449219"/><stop stop-opacity="1" stop-color="rgb(74.139404%, 89.498901%, 39.282227%)" offset="0.453125"/><stop stop-opacity="1" stop-color="rgb(74.404907%, 89.546204%, 39.337158%)" offset="0.457031"/><stop stop-opacity="1" stop-color="rgb(74.671936%, 89.593506%, 39.393616%)" offset="0.460938"/><stop stop-opacity="1" stop-color="rgb(74.937439%, 89.640808%, 39.448547%)" offset="0.464844"/><stop stop-opacity="1" stop-color="rgb(75.202942%, 89.689636%, 39.505005%)" offset="0.46875"/><stop stop-opacity="1" stop-color="rgb(75.468445%, 89.736938%, 39.559937%)" offset="0.472656"/><stop stop-opacity="1" stop-color="rgb(75.735474%, 89.784241%, 39.616394%)" offset="0.476562"/><stop stop-opacity="1" stop-color="rgb(76.000977%, 89.831543%, 39.671326%)" offset="0.480469"/><stop stop-opacity="1" stop-color="rgb(76.268005%, 89.878845%, 39.727783%)" offset="0.484375"/><stop stop-opacity="1" stop-color="rgb(76.533508%, 89.926147%, 39.782715%)" offset="0.488281"/><stop stop-opacity="1" stop-color="rgb(76.800537%, 89.97345%, 39.839172%)" offset="0.492188"/><stop stop-opacity="1" stop-color="rgb(77.06604%, 90.020752%, 39.894104%)" offset="0.496094"/><stop stop-opacity="1" stop-color="rgb(77.333069%, 90.068054%, 39.950562%)" offset="0.5"/><stop stop-opacity="1" stop-color="rgb(77.598572%, 90.115356%, 40.005493%)" offset="0.503906"/><stop stop-opacity="1" stop-color="rgb(77.865601%, 90.162659%, 40.061951%)" offset="0.507812"/><stop stop-opacity="1" stop-color="rgb(78.131104%, 90.209961%, 40.116882%)" offset="0.511719"/><stop stop-opacity="1" stop-color="rgb(78.398132%, 90.257263%, 40.17334%)" offset="0.515625"/><stop stop-opacity="1" stop-color="rgb(78.663635%, 90.304565%, 40.229797%)" offset="0.519531"/><stop stop-opacity="1" stop-color="rgb(78.930664%, 90.351868%, 40.286255%)" offset="0.523438"/><stop stop-opacity="1" stop-color="rgb(79.196167%, 90.39917%, 40.341187%)" offset="0.527344"/><stop stop-opacity="1" stop-color="rgb(79.463196%, 90.446472%, 40.397644%)" offset="0.53125"/><stop stop-opacity="1" stop-color="rgb(79.728699%, 90.493774%, 40.452576%)" offset="0.535156"/><stop stop-opacity="1" stop-color="rgb(79.994202%, 90.541077%, 40.509033%)" offset="0.539062"/><stop stop-opacity="1" stop-color="rgb(80.259705%, 90.588379%, 40.563965%)" offset="0.542969"/><stop stop-opacity="1" stop-color="rgb(80.526733%, 90.635681%, 40.620422%)" offset="0.546875"/><stop stop-opacity="1" stop-color="rgb(80.792236%, 90.682983%, 40.675354%)" offset="0.550781"/><stop stop-opacity="1" stop-color="rgb(81.059265%, 90.730286%, 40.731812%)" offset="0.554688"/><stop stop-opacity="1" stop-color="rgb(81.324768%, 90.777588%, 40.786743%)" offset="0.558594"/><stop stop-opacity="1" stop-color="rgb(81.591797%, 90.82489%, 40.843201%)" offset="0.5625"/><stop stop-opacity="1" stop-color="rgb(81.8573%, 90.872192%, 40.898132%)" offset="0.566406"/><stop stop-opacity="1" stop-color="rgb(82.124329%, 90.919495%, 40.95459%)" offset="0.570312"/><stop stop-opacity="1" stop-color="rgb(82.389832%, 90.966797%, 41.009521%)" offset="0.574219"/><stop stop-opacity="1" stop-color="rgb(82.65686%, 91.014099%, 41.065979%)" offset="0.578125"/><stop stop-opacity="1" stop-color="rgb(82.922363%, 91.061401%, 41.120911%)" offset="0.582031"/><stop stop-opacity="1" stop-color="rgb(83.189392%, 91.108704%, 41.177368%)" offset="0.585938"/><stop stop-opacity="1" stop-color="rgb(83.454895%, 91.156006%, 41.2323%)" offset="0.589844"/><stop stop-opacity="1" stop-color="rgb(83.721924%, 91.203308%, 41.288757%)" offset="0.59375"/><stop stop-opacity="1" stop-color="rgb(83.987427%, 91.25061%, 41.343689%)" offset="0.597656"/><stop stop-opacity="1" stop-color="rgb(84.254456%, 91.299438%, 41.400146%)" offset="0.601562"/><stop stop-opacity="1" stop-color="rgb(84.519958%, 91.346741%, 41.456604%)" offset="0.605469"/><stop stop-opacity="1" stop-color="rgb(84.786987%, 91.394043%, 41.513062%)" offset="0.609375"/><stop stop-opacity="1" stop-color="rgb(85.05249%, 91.441345%, 41.567993%)" offset="0.613281"/><stop stop-opacity="1" stop-color="rgb(85.317993%, 91.488647%, 41.624451%)" offset="0.617188"/><stop stop-opacity="1" stop-color="rgb(85.583496%, 91.53595%, 41.679382%)" offset="0.621094"/><stop stop-opacity="1" stop-color="rgb(85.850525%, 91.583252%, 41.73584%)" offset="0.625"/><stop stop-opacity="1" stop-color="rgb(86.116028%, 91.630554%, 41.790771%)" offset="0.628906"/><stop stop-opacity="1" stop-color="rgb(86.383057%, 91.677856%, 41.847229%)" offset="0.632812"/><stop stop-opacity="1" stop-color="rgb(86.64856%, 91.725159%, 41.902161%)" offset="0.636719"/><stop stop-opacity="1" stop-color="rgb(86.915588%, 91.772461%, 41.958618%)" offset="0.640625"/><stop stop-opacity="1" stop-color="rgb(87.181091%, 91.819763%, 42.01355%)" offset="0.644531"/><stop stop-opacity="1" stop-color="rgb(87.44812%, 91.867065%, 42.070007%)" offset="0.648438"/><stop stop-opacity="1" stop-color="rgb(87.713623%, 91.914368%, 42.124939%)" offset="0.652344"/><stop stop-opacity="1" stop-color="rgb(87.980652%, 91.96167%, 42.181396%)" offset="0.65625"/><stop stop-opacity="1" stop-color="rgb(88.246155%, 92.008972%, 42.236328%)" offset="0.660156"/><stop stop-opacity="1" stop-color="rgb(88.513184%, 92.056274%, 42.292786%)" offset="0.664062"/><stop stop-opacity="1" stop-color="rgb(88.778687%, 92.103577%, 42.347717%)" offset="0.667969"/><stop stop-opacity="1" stop-color="rgb(89.045715%, 92.150879%, 42.404175%)" offset="0.671875"/><stop stop-opacity="1" stop-color="rgb(89.311218%, 92.198181%, 42.459106%)" offset="0.675781"/><stop stop-opacity="1" stop-color="rgb(89.578247%, 92.245483%, 42.515564%)" offset="0.679688"/><stop stop-opacity="1" stop-color="rgb(89.84375%, 92.292786%, 42.570496%)" offset="0.683594"/><stop stop-opacity="1" stop-color="rgb(90.109253%, 92.340088%, 42.626953%)" offset="0.6875"/><stop stop-opacity="1" stop-color="rgb(90.374756%, 92.38739%, 42.681885%)" offset="0.691406"/><stop stop-opacity="1" stop-color="rgb(90.641785%, 92.434692%, 42.738342%)" offset="0.695312"/><stop stop-opacity="1" stop-color="rgb(90.907288%, 92.481995%, 42.7948%)" offset="0.699219"/><stop stop-opacity="1" stop-color="rgb(91.174316%, 92.529297%, 42.851257%)" offset="0.703125"/><stop stop-opacity="1" stop-color="rgb(91.439819%, 92.576599%, 42.906189%)" offset="0.707031"/><stop stop-opacity="1" stop-color="rgb(91.706848%, 92.623901%, 42.962646%)" offset="0.710938"/><stop stop-opacity="1" stop-color="rgb(91.972351%, 92.671204%, 43.017578%)" offset="0.714844"/><stop stop-opacity="1" stop-color="rgb(92.23938%, 92.718506%, 43.074036%)" offset="0.71875"/><stop stop-opacity="1" stop-color="rgb(92.504883%, 92.765808%, 43.128967%)" offset="0.722656"/><stop stop-opacity="1" stop-color="rgb(92.771912%, 92.81311%, 43.185425%)" offset="0.726562"/><stop stop-opacity="1" stop-color="rgb(93.037415%, 92.860413%, 43.240356%)" offset="0.730469"/><stop stop-opacity="1" stop-color="rgb(93.304443%, 92.907715%, 43.296814%)" offset="0.734375"/><stop stop-opacity="1" stop-color="rgb(93.569946%, 92.955017%, 43.351746%)" offset="0.738281"/><stop stop-opacity="1" stop-color="rgb(93.836975%, 93.003845%, 43.408203%)" offset="0.742188"/><stop stop-opacity="1" stop-color="rgb(94.102478%, 93.051147%, 43.463135%)" offset="0.746094"/><stop stop-opacity="1" stop-color="rgb(94.369507%, 93.09845%, 43.519592%)" offset="0.75"/><stop stop-opacity="1" stop-color="rgb(94.63501%, 93.145752%, 43.574524%)" offset="0.753906"/><stop stop-opacity="1" stop-color="rgb(94.900513%, 93.193054%, 43.630981%)" offset="0.757812"/><stop stop-opacity="1" stop-color="rgb(95.166016%, 93.240356%, 43.685913%)" offset="0.761719"/><stop stop-opacity="1" stop-color="rgb(95.433044%, 93.287659%, 43.742371%)" offset="0.765625"/><stop stop-opacity="1" stop-color="rgb(95.698547%, 93.334961%, 43.797302%)" offset="0.769531"/><stop stop-opacity="1" stop-color="rgb(95.965576%, 93.382263%, 43.85376%)" offset="0.773438"/><stop stop-opacity="1" stop-color="rgb(96.231079%, 93.429565%, 43.908691%)" offset="0.777344"/><stop stop-opacity="1" stop-color="rgb(96.498108%, 93.476868%, 43.965149%)" offset="0.78125"/><stop stop-opacity="1" stop-color="rgb(96.763611%, 93.52417%, 44.021606%)" offset="0.785156"/><stop stop-opacity="1" stop-color="rgb(97.03064%, 93.571472%, 44.078064%)" offset="0.789063"/><stop stop-opacity="1" stop-color="rgb(97.296143%, 93.618774%, 44.132996%)" offset="0.792969"/><stop stop-opacity="1" stop-color="rgb(97.563171%, 93.666077%, 44.189453%)" offset="0.796875"/><stop stop-opacity="1" stop-color="rgb(97.828674%, 93.713379%, 44.244385%)" offset="0.800781"/><stop stop-opacity="1" stop-color="rgb(98.095703%, 93.760681%, 44.300842%)" offset="0.804688"/><stop stop-opacity="1" stop-color="rgb(98.361206%, 93.807983%, 44.355774%)" offset="0.808594"/><stop stop-opacity="1" stop-color="rgb(98.628235%, 93.855286%, 44.412231%)" offset="0.8125"/><stop stop-opacity="1" stop-color="rgb(98.893738%, 93.902588%, 44.467163%)" offset="0.816406"/><stop stop-opacity="1" stop-color="rgb(99.160767%, 93.94989%, 44.523621%)" offset="0.820312"/><stop stop-opacity="1" stop-color="rgb(99.42627%, 93.997192%, 44.578552%)" offset="0.824219"/><stop stop-opacity="1" stop-color="rgb(99.691772%, 94.044495%, 44.63501%)" offset="0.828125"/><stop stop-opacity="1" stop-color="rgb(99.845886%, 94.07196%, 44.667053%)" offset="0.84375"/><stop stop-opacity="1" stop-color="rgb(100%, 94.099426%, 44.699097%)" offset="0.875"/><stop stop-opacity="1" stop-color="rgb(100%, 94.099426%, 44.699097%)" offset="1"/></linearGradient><clipPath id="0b68184b88"><rect x="0" width="328" y="0" height="346"/></clipPath><clipPath id="fef7691436"><path d="M 125 329.023438 L 162 329.023438 L 162 365 L 125 365 Z M 125 329.023438 " clip-rule="nonzero"/></clipPath><clipPath id="e4e7f3136c"><path d="M 216 423 L 233 423 L 233 441.523438 L 216 441.523438 Z M 216 423 " clip-rule="nonzero"/></clipPath><clipPath id="902d0965c7"><path d="M 63.425781 65.9375 L 736.175781 65.9375 L 736.175781 738.6875 L 63.425781 738.6875 Z M 63.425781 65.9375 " clip-rule="nonzero"/></clipPath></defs><rect x="-81" width="972" fill="#ffffff" y="-80.999999" height="971.999992" fill-opacity="1"/><rect x="-81" width="972" fill="#000000" y="-80.999999" height="971.999992" fill-opacity="1"/><g fill="#ffffff" fill-opacity="1"><g transform="translate(292.291102, 429.067018)"><g><path d="M 2.945312 -16.535156 C 3.320312 -7.398438 8.984375 1.285156 25.519531 1.285156 C 41.222656 1.285156 47.339844 -5.132812 47.339844 -15.023438 C 47.339844 -23.78125 42.207031 -28.617188 32.011719 -29.746094 L 21.519531 -31.03125 C 17.367188 -31.484375 15.628906 -33.675781 15.628906 -36.617188 C 15.628906 -40.542969 18.875 -43.035156 24.992188 -43.035156 C 31.636719 -43.035156 34.957031 -40.015625 35.5625 -35.335938 L 46.8125 -35.335938 C 46.207031 -44.246094 40.015625 -51.492188 24.992188 -51.492188 C 10.871094 -51.492188 4.078125 -45 4.078125 -35.9375 C 4.078125 -27.632812 9.058594 -22.726562 17.96875 -21.667969 L 29.066406 -20.234375 C 33.523438 -19.628906 35.789062 -17.667969 35.789062 -13.890625 C 35.789062 -9.890625 33.296875 -7.25 25.671875 -7.25 C 17.742188 -7.25 14.421875 -11.175781 14.117188 -16.535156 Z M 2.945312 -16.535156 "/></g></g></g><g fill="#ffffff" fill-opacity="1"><g transform="translate(342.693069, 429.067018)"><g><path d="M 43.566406 -41.148438 L 43.566406 -50.207031 L 4.378906 -50.207031 L 4.378906 0 L 15.855469 0 L 15.855469 -20.460938 L 40.996094 -20.460938 L 40.996094 -28.992188 L 15.855469 -28.992188 L 15.855469 -41.148438 Z M 43.566406 -41.148438 "/></g></g></g><g fill="#ffffff" fill-opacity="1"><g transform="translate(389.397873, 429.067018)"><g><path d="M 0.832031 0 L 13.210938 0 L 21.140625 -11.777344 L 29.21875 0 L 42.28125 0 L 27.859375 -19.027344 L 41.601562 -37.75 L 29.519531 -37.75 L 21.820312 -25.820312 L 13.816406 -37.75 L 0.679688 -37.75 L 14.949219 -18.421875 Z M 0.832031 0 "/></g></g></g><g mask="url(#9a3a0784f1)"><g transform="matrix(1, 0, 0, 1, 344, 236)"><g clip-path="url(#0b68184b88)"><g clip-path="url(#72c7bce007)"><g clip-path="url(#23b833e208)"><path fill="url(#a1db1429bb)" d="M 0.878906 0.234375 L 0.878906 345.949219 L 328 345.949219 L 328 0.234375 Z M 0.878906 0.234375 " fill-rule="nonzero"/></g></g></g></g></g><g clip-path="url(#fef7691436)"><path fill="#e3e7f1" d="M 161.605469 352.597656 C 163.777344 342.347656 153.308594 329.035156 141.765625 329.863281 C 135.308594 330.328125 129.335938 335.160156 126.992188 341.230469 C 126.59375 342.261719 124.085938 348.746094 127.414062 354.28125 C 129.421875 357.625 132.496094 358.84375 137.964844 361.019531 C 144 363.414062 147.65625 364.863281 151.898438 363.542969 C 156.882812 361.992188 160.621094 357.246094 161.605469 352.597656 Z M 161.605469 352.597656 " fill-opacity="1" fill-rule="nonzero"/></g><path fill="#e3e7f1" d="M 217.753906 361.578125 C 218.582031 351.644531 211.019531 342.34375 202.554688 338.425781 C 200.289062 337.375 192.65625 333.835938 185.667969 337.160156 C 180.488281 339.625 178.207031 344.652344 175.117188 351.476562 C 173.1875 355.726562 172.230469 357.910156 172.582031 360.738281 C 173.480469 367.984375 181.53125 371.941406 182.714844 372.523438 C 185.996094 374.140625 189.96875 374.300781 197.910156 374.628906 C 205.457031 374.941406 209.285156 375.058594 211.84375 373.367188 C 217.054688 369.917969 217.652344 362.789062 217.753906 361.578125 Z M 217.753906 361.578125 " fill-opacity="1" fill-rule="nonzero"/><path fill="#e3e7f1" d="M 172.425781 372.960938 C 171.707031 372.296875 170.117188 372.027344 166.9375 371.488281 C 165.0625 371.167969 163.902344 370.980469 162.292969 371.066406 C 160.574219 371.160156 159.152344 371.234375 157.863281 372.117188 C 156.324219 373.164062 155.804688 374.785156 155.328125 376.328125 C 154.632812 378.59375 153.539062 382.144531 155.328125 385.800781 C 156.863281 388.929688 160.46875 392.050781 164.40625 391.695312 C 170.445312 391.148438 172.578125 382.832031 173.058594 380.957031 C 173.46875 379.363281 174.59375 374.964844 172.425781 372.960938 Z M 172.425781 372.960938 " fill-opacity="1" fill-rule="nonzero"/><path fill="#e3e7f1" d="M 247.722656 376.101562 C 247.109375 374.597656 246.027344 373.667969 245.191406 372.945312 C 244.496094 372.347656 242.019531 370.28125 238.4375 370.210938 C 234.5625 370.132812 231.902344 372.441406 230.839844 373.367188 C 226.75 376.917969 226.105469 381.878906 225.984375 383.679688 C 225.910156 384.777344 225.441406 393.636719 231.050781 396.101562 C 234.519531 397.625 238.550781 395.929688 240.757812 394.207031 C 242.367188 392.953125 243.308594 390.914062 245.191406 386.839844 C 248.78125 379.070312 248.007812 376.800781 247.722656 376.101562 Z M 247.722656 376.101562 " fill-opacity="1" fill-rule="nonzero"/><path fill="#e3e7f1" d="M 197.066406 404.519531 C 196.871094 403.046875 195.957031 396.207031 191.15625 393.996094 C 187.21875 392.179688 182.835938 394.484375 179.757812 396.101562 C 176.972656 397.566406 173.496094 399.390625 172.160156 403.257812 C 170.503906 408.050781 173.304688 412.625 174.269531 414.203125 C 177.980469 420.265625 185.859375 424.507812 192 422.625 C 192.75 422.394531 195.851562 421.445312 197.066406 418.835938 C 197.859375 417.140625 197.335938 415.855469 197.066406 412.097656 C 196.71875 407.269531 197.429688 407.234375 197.066406 404.519531 Z M 197.066406 404.519531 " fill-opacity="1" fill-rule="nonzero"/><path fill="#e3e7f1" d="M 218.550781 415.1875 C 220.597656 417.027344 226.0625 416.171875 228.679688 412.660156 C 230.804688 409.8125 231 405.292969 228.679688 402.976562 C 227.308594 401.605469 225.488281 401.449219 223.617188 401.292969 C 220.117188 401 214.957031 401.851562 214.328125 404.238281 C 213.96875 405.617188 215.476562 406.097656 216.859375 409.714844 C 218.144531 413.070312 217.421875 414.171875 218.550781 415.1875 Z M 218.550781 415.1875 " fill-opacity="1" fill-rule="nonzero"/><path fill="#e3e7f1" d="M 237.671875 362.210938 C 240.722656 362.613281 244.726562 361.15625 245.695312 358.003906 C 246.859375 354.207031 242.753906 350.789062 242.316406 350.425781 C 241.507812 349.753906 239.570312 348.136719 236.828125 348.320312 C 233.949219 348.507812 231.160156 350.613281 230.496094 353.371094 C 229.511719 357.460938 233.527344 361.667969 237.671875 362.210938 Z M 237.671875 362.210938 " fill-opacity="1" fill-rule="nonzero"/><path fill="#e3e7f1" d="M 169.019531 342.621094 C 170.972656 341.886719 173.019531 339.699219 172.394531 337.847656 C 171.78125 336.035156 168.820312 335.222656 166.765625 336.164062 C 164.441406 337.230469 163.324219 340.519531 164.515625 342.058594 C 165.46875 343.292969 167.683594 343.121094 169.019531 342.621094 Z M 169.019531 342.621094 " fill-opacity="1" fill-rule="nonzero"/><path fill="#e3e7f1" d="M 280.730469 405.273438 C 280.65625 404.515625 279.652344 395.417969 272.566406 392.363281 C 267.394531 390.132812 262.265625 392.542969 259.058594 394.046875 C 255.976562 395.496094 249.847656 398.375 248.082031 404.992188 C 245.863281 413.332031 252.558594 420.128906 253.148438 420.710938 C 254.449219 421.992188 259.753906 426.804688 266.65625 425.761719 C 275.84375 424.378906 279.375 413.910156 279.886719 412.289062 C 280.277344 411.042969 281.039062 408.539062 280.730469 405.273438 Z M 280.730469 405.273438 " fill-opacity="1" fill-rule="nonzero"/><path fill="#e3e7f1" d="M 262.339844 381.085938 C 264.816406 380.433594 267.460938 378.246094 267.125 376.59375 C 266.640625 374.226562 259.871094 372.152344 257.273438 374.910156 C 256.117188 376.140625 255.664062 378.460938 256.710938 379.960938 C 258.199219 382.101562 261.785156 381.230469 262.339844 381.085938 Z M 262.339844 381.085938 " fill-opacity="1" fill-rule="nonzero"/><path fill="#e3e7f1" d="M 219.160156 390.628906 C 219.453125 389.824219 221.90625 383.144531 219.160156 381.085938 C 217.4375 379.792969 214.390625 380.867188 212.96875 381.367188 C 212.234375 381.625 210.902344 382.109375 209.589844 383.332031 C 209.324219 383.574219 208.121094 384.730469 207.339844 386.699219 C 206.980469 387.597656 206.132812 389.730469 206.777344 392.03125 C 207.601562 394.980469 210.769531 397.839844 213.8125 397.363281 C 216.859375 396.882812 218.179688 393.300781 219.160156 390.628906 Z M 219.160156 390.628906 " fill-opacity="1" fill-rule="nonzero"/><path fill="#e3e7f1" d="M 221.640625 348.289062 C 223.640625 348.554688 224.914062 345.976562 225.019531 345.761719 C 225.253906 345.261719 225.820312 344.078125 225.300781 342.953125 C 224.65625 341.570312 222.636719 340.875 221.078125 341.550781 C 219.761719 342.121094 219.148438 343.5 219.109375 344.636719 C 219.050781 346.210938 220.058594 348.074219 221.640625 348.289062 Z M 221.640625 348.289062 " fill-opacity="1" fill-rule="nonzero"/><g clip-path="url(#e4e7f3136c)"><path fill="#e3e7f1" d="M 225.632812 423.464844 C 222.90625 423.859375 221.15625 425.441406 220.566406 425.992188 C 218.15625 428.234375 215.511719 432.890625 217.472656 436.9375 C 218.605469 439.285156 221.363281 441.578125 223.945312 441.148438 C 226.230469 440.765625 227.34375 438.367188 229.574219 433.570312 C 231.578125 429.246094 232.804688 426.613281 231.542969 424.867188 C 230.066406 422.828125 226.167969 423.386719 225.632812 423.464844 Z M 225.632812 423.464844 " fill-opacity="1" fill-rule="nonzero"/></g><g clip-path="url(#902d0965c7)"><path fill="#040606" d="M 115.753906 118.265625 L 683.851562 118.265625 L 683.851562 686.359375 L 115.753906 686.359375 Z M 63.425781 738.6875 L 736.175781 738.6875 L 736.175781 65.9375 L 63.425781 65.9375 L 63.425781 738.6875 " fill-opacity="1" fill-rule="nonzero"/></g></svg>